<svg xmlns="http://www.w3.org/2000/svg" xmlns:xlink="http://www.w3.org/1999/xlink" viewBox="0,0,256,256" width="100px" height="100px"><g fill="#a855f7" fill-rule="nonzero" stroke="none" stroke-width="1" stroke-linecap="butt" stroke-linejoin="miter" stroke-miterlimit="10" stroke-dasharray="" stroke-dashoffset="0" font-family="none" font-weight="none" font-size="none" text-anchor="none" style="mix-blend-mode: normal"><g transform="scale(5.33333,5.33333)"><path d="M10,6c-2.209,0 -4,1.791 -4,4v28c0,2.209 1.791,4 4,4h28c2.209,0 4,-1.791 4,-4v-28c0,-2.209 -1.791,-4 -4,-4zM10,9h28c0.551,0 1,0.449 1,1v28c0,0.551 -0.449,1 -1,1h-28c-0.551,0 -1,-0.449 -1,-1v-28c0,-0.551 0.449,-1 1,-1zM32.58398,21.97656c-0.742,0 -1.44538,0.08023 -2.10937,0.24023c-0.664,0.16 -1.24795,0.40809 -1.75195,0.74609c-0.504,0.338 -0.90427,0.77092 -1.19727,1.29492c-0.293,0.524 -0.4375,1.14991 -0.4375,1.87891c0,0.931 0.26769,1.72481 0.80469,2.38281c0.537,0.658 1.35327,1.21392 2.44727,1.66992c0.43,0.176 0.82822,0.34858 1.19922,0.51758c0.371,0.169 0.69289,0.34534 0.96289,0.52734c0.27,0.182 0.48463,0.3817 0.64063,0.5957c0.156,0.214 0.23438,0.45942 0.23438,0.73242c0,0.202 -0.04948,0.3905 -0.14648,0.5625c-0.097,0.172 -0.24631,0.32222 -0.44531,0.44922c-0.199,0.127 -0.44423,0.22588 -0.74023,0.29688c-0.296,0.071 -0.64402,0.10742 -1.04102,0.10742c-0.678,0 -1.34772,-0.11847 -2.01172,-0.35547c-0.664,-0.237 -1.2797,-0.59336 -1.8457,-1.06836v3.125c0.508,0.26 1.10778,0.45398 1.80078,0.58398c0.693,0.13 1.42341,0.19336 2.19141,0.19336c0.749,0 1.46176,-0.07184 2.13477,-0.21484c0.673,-0.143 1.26348,-0.37803 1.77148,-0.70703c0.508,-0.329 0.91103,-0.75806 1.20703,-1.28906c0.296,-0.531 0.44336,-1.18775 0.44336,-1.96875c0,-0.566 -0.08491,-1.06128 -0.25391,-1.48828c-0.169,-0.427 -0.41442,-0.80667 -0.73242,-1.13867c-0.318,-0.332 -0.70048,-0.62858 -1.14648,-0.89258c-0.446,-0.264 -0.94977,-0.51405 -1.50977,-0.74805c-0.411,-0.169 -0.77752,-0.33319 -1.10352,-0.49219c-0.326,-0.159 -0.60208,-0.32228 -0.83008,-0.48828c-0.228,-0.166 -0.40334,-0.34134 -0.52734,-0.52734c-0.124,-0.186 -0.18555,-0.39686 -0.18555,-0.63086c0,-0.215 0.05502,-0.40808 0.16602,-0.58008c0.111,-0.172 0.26775,-0.32036 0.46875,-0.44336c0.201,-0.123 0.44919,-0.22006 0.74219,-0.28906c0.293,-0.069 0.61856,-0.10352 0.97656,-0.10352c0.26,0 0.53617,0.02155 0.82617,0.06055c0.29,0.039 0.58105,0.09769 0.87305,0.17969c0.292,0.082 0.57652,0.18459 0.85352,0.30859c0.277,0.124 0.53358,0.26669 0.76758,0.42969v-2.91992c-0.475,-0.182 -0.99559,-0.3163 -1.55859,-0.4043c-0.563,-0.088 -1.2085,-0.13281 -1.9375,-0.13281zM14.77344,22.21289v2.56836h3.97461v11.43555h3.16406v-11.43555h3.99414v-2.56836z"></path></g></g></svg>